<mxfile host="app.diagrams.net" modified="2024-03-19T14:02:28.983Z" agent="Mozilla/5.0 (Windows NT 10.0; Win64; x64) AppleWebKit/537.36 (KHTML, like Gecko) Chrome/122.0.0.0 Safari/537.36 Edg/122.0.0.0" etag="-8_QerhP_XWfN6Ybyqxh" version="24.0.7" type="github">
  <diagram name="第 1 页" id="bB7RbFDz9d00YhY26ljX">
    <mxGraphModel dx="1895" dy="1065" grid="1" gridSize="10" guides="1" tooltips="1" connect="1" arrows="1" fold="1" page="1" pageScale="1" pageWidth="1500" pageHeight="600" math="0" shadow="0">
      <root>
        <mxCell id="0" />
        <mxCell id="1" parent="0" />
        <mxCell id="KhSe5g_Kd3sWTfT6dcdc-7" style="rounded=0;orthogonalLoop=1;jettySize=auto;html=1;exitX=0;exitY=0.3333333333333333;exitDx=0;exitDy=0;exitPerimeter=0;entryX=1;entryY=0.5;entryDx=0;entryDy=0;" parent="1" source="KhSe5g_Kd3sWTfT6dcdc-1" target="KhSe5g_Kd3sWTfT6dcdc-6" edge="1">
          <mxGeometry relative="1" as="geometry" />
        </mxCell>
        <mxCell id="KhSe5g_Kd3sWTfT6dcdc-8" style="rounded=0;orthogonalLoop=1;jettySize=auto;html=1;exitX=0.25;exitY=0.1;exitDx=0;exitDy=0;exitPerimeter=0;entryX=1;entryY=1;entryDx=0;entryDy=0;" parent="1" source="KhSe5g_Kd3sWTfT6dcdc-1" target="KhSe5g_Kd3sWTfT6dcdc-4" edge="1">
          <mxGeometry relative="1" as="geometry" />
        </mxCell>
        <mxCell id="KhSe5g_Kd3sWTfT6dcdc-9" style="edgeStyle=none;rounded=0;orthogonalLoop=1;jettySize=auto;html=1;exitX=0.75;exitY=0.1;exitDx=0;exitDy=0;exitPerimeter=0;entryX=0.5;entryY=1;entryDx=0;entryDy=0;" parent="1" source="KhSe5g_Kd3sWTfT6dcdc-1" target="KhSe5g_Kd3sWTfT6dcdc-5" edge="1">
          <mxGeometry relative="1" as="geometry" />
        </mxCell>
        <mxCell id="pWsG7xmPO49LP-u3usCh-4" style="rounded=0;orthogonalLoop=1;jettySize=auto;html=1;exitX=0.5;exitY=0;exitDx=0;exitDy=0;exitPerimeter=0;entryX=0.5;entryY=1;entryDx=0;entryDy=0;" edge="1" parent="1" source="KhSe5g_Kd3sWTfT6dcdc-1" target="pWsG7xmPO49LP-u3usCh-3">
          <mxGeometry relative="1" as="geometry" />
        </mxCell>
        <mxCell id="KhSe5g_Kd3sWTfT6dcdc-1" value="&lt;font style=&quot;font-size: 30px;&quot;&gt;管理员&lt;/font&gt;" style="shape=umlActor;verticalLabelPosition=bottom;verticalAlign=top;html=1;outlineConnect=0;strokeWidth=4;perimeterSpacing=5;shadow=0;" parent="1" vertex="1">
          <mxGeometry x="725" y="390" width="70" height="120" as="geometry" />
        </mxCell>
        <mxCell id="KhSe5g_Kd3sWTfT6dcdc-3" value="&lt;font style=&quot;font-size: 30px;&quot;&gt;查看所有用户信息&lt;/font&gt;" style="ellipse;whiteSpace=wrap;html=1;" parent="1" vertex="1">
          <mxGeometry x="1160" y="240" width="290" height="90" as="geometry" />
        </mxCell>
        <mxCell id="KhSe5g_Kd3sWTfT6dcdc-4" value="&lt;font style=&quot;font-size: 30px;&quot;&gt;删除用户&lt;/font&gt;" style="ellipse;whiteSpace=wrap;html=1;" parent="1" vertex="1">
          <mxGeometry x="220" y="60" width="290" height="90" as="geometry" />
        </mxCell>
        <mxCell id="KhSe5g_Kd3sWTfT6dcdc-5" value="&lt;span style=&quot;font-size: 30px;&quot;&gt;修改用户信息&lt;/span&gt;" style="ellipse;whiteSpace=wrap;html=1;" parent="1" vertex="1">
          <mxGeometry x="1010" y="50" width="290" height="90" as="geometry" />
        </mxCell>
        <mxCell id="KhSe5g_Kd3sWTfT6dcdc-6" value="&lt;font style=&quot;font-size: 30px;&quot;&gt;添加用户&lt;/font&gt;" style="ellipse;whiteSpace=wrap;html=1;" parent="1" vertex="1">
          <mxGeometry x="95" y="300" width="290" height="90" as="geometry" />
        </mxCell>
        <mxCell id="KhSe5g_Kd3sWTfT6dcdc-10" style="edgeStyle=none;rounded=0;orthogonalLoop=1;jettySize=auto;html=1;exitX=1;exitY=0.3333333333333333;exitDx=0;exitDy=0;exitPerimeter=0;entryX=0.184;entryY=0.873;entryDx=0;entryDy=0;entryPerimeter=0;" parent="1" source="KhSe5g_Kd3sWTfT6dcdc-1" target="KhSe5g_Kd3sWTfT6dcdc-3" edge="1">
          <mxGeometry relative="1" as="geometry" />
        </mxCell>
        <mxCell id="pWsG7xmPO49LP-u3usCh-3" value="&lt;font style=&quot;font-size: 30px;&quot;&gt;搜索用户&lt;/font&gt;" style="ellipse;whiteSpace=wrap;html=1;" vertex="1" parent="1">
          <mxGeometry x="620" y="40" width="290" height="90" as="geometry" />
        </mxCell>
      </root>
    </mxGraphModel>
  </diagram>
</mxfile>
